<mxfile host="app.diagrams.net" modified="2022-04-24T05:12:02.418Z" agent="5.0 (Windows NT 10.0; Win64; x64) AppleWebKit/537.36 (KHTML, like Gecko) Chrome/100.0.4896.127 Safari/537.36" etag="CXSbxq5Z4gLLG0VyMlGk" version="17.4.6" type="github">
  <diagram id="c16zPhkMOsYx8Pd9JfSY" name="Page-1">
    <mxGraphModel dx="2249" dy="1931" grid="1" gridSize="10" guides="1" tooltips="1" connect="1" arrows="1" fold="1" page="1" pageScale="1" pageWidth="827" pageHeight="1169" math="0" shadow="0">
      <root>
        <mxCell id="0" />
        <mxCell id="1" parent="0" />
        <mxCell id="fohkbhz7AOHdn0SM_CYz-6" value="" style="rounded=1;whiteSpace=wrap;html=1;dashed=1;shadow=1;sketch=1;strokeWidth=2;fillColor=none;" vertex="1" parent="1">
          <mxGeometry x="-80" y="-80" width="760" height="890" as="geometry" />
        </mxCell>
        <mxCell id="fohkbhz7AOHdn0SM_CYz-13" value="" style="rounded=0;whiteSpace=wrap;html=1;shadow=1;sketch=1;strokeWidth=2;fillColor=none;dashed=1;" vertex="1" parent="1">
          <mxGeometry x="-40" y="-40" width="680" height="400" as="geometry" />
        </mxCell>
        <mxCell id="fohkbhz7AOHdn0SM_CYz-7" value="" style="rounded=1;whiteSpace=wrap;html=1;shadow=1;sketch=1;strokeWidth=2;fillColor=#f8cecc;fontSize=17;fontStyle=3;strokeColor=#b85450;" vertex="1" parent="1">
          <mxGeometry y="-20" width="200" height="260" as="geometry" />
        </mxCell>
        <mxCell id="fohkbhz7AOHdn0SM_CYz-8" value="thead-A" style="rounded=1;whiteSpace=wrap;html=1;shadow=1;sketch=1;strokeWidth=2;fillColor=none;fontSize=17;fontStyle=3" vertex="1" parent="1">
          <mxGeometry x="20" y="10" width="160" height="50" as="geometry" />
        </mxCell>
        <mxCell id="fohkbhz7AOHdn0SM_CYz-9" value="CPU-A" style="text;html=1;strokeColor=none;fillColor=none;align=center;verticalAlign=middle;whiteSpace=wrap;rounded=0;shadow=1;sketch=1;fontSize=17;fontStyle=3" vertex="1" parent="1">
          <mxGeometry x="70" y="-20" width="60" height="30" as="geometry" />
        </mxCell>
        <mxCell id="fohkbhz7AOHdn0SM_CYz-10" value="L1 Cache" style="rounded=1;whiteSpace=wrap;html=1;shadow=1;sketch=1;strokeWidth=2;fillColor=none;fontSize=17;fontStyle=3" vertex="1" parent="1">
          <mxGeometry x="20" y="80" width="80" height="60" as="geometry" />
        </mxCell>
        <mxCell id="fohkbhz7AOHdn0SM_CYz-11" value="&lt;span style=&quot;font-size: 17px;&quot;&gt;L1 Cache&lt;/span&gt;" style="rounded=1;whiteSpace=wrap;html=1;shadow=1;sketch=1;strokeWidth=2;fillColor=none;fontSize=17;fontStyle=3" vertex="1" parent="1">
          <mxGeometry x="100" y="80" width="80" height="60" as="geometry" />
        </mxCell>
        <mxCell id="fohkbhz7AOHdn0SM_CYz-12" value="L2 Cache" style="rounded=1;whiteSpace=wrap;html=1;shadow=1;sketch=1;strokeWidth=2;fillColor=none;fontSize=17;fontStyle=3" vertex="1" parent="1">
          <mxGeometry x="20" y="150" width="160" height="50" as="geometry" />
        </mxCell>
        <mxCell id="fohkbhz7AOHdn0SM_CYz-14" value="" style="rounded=1;whiteSpace=wrap;html=1;shadow=1;sketch=1;strokeWidth=2;fillColor=#f8cecc;fontSize=17;fontStyle=3;strokeColor=#b85450;" vertex="1" parent="1">
          <mxGeometry x="400" y="-20" width="200" height="260" as="geometry" />
        </mxCell>
        <mxCell id="fohkbhz7AOHdn0SM_CYz-15" value="thead-A" style="rounded=1;whiteSpace=wrap;html=1;shadow=1;sketch=1;strokeWidth=2;fillColor=none;fontSize=17;fontStyle=3" vertex="1" parent="1">
          <mxGeometry x="420" y="10" width="160" height="50" as="geometry" />
        </mxCell>
        <mxCell id="fohkbhz7AOHdn0SM_CYz-16" value="CPU-A" style="text;html=1;strokeColor=none;fillColor=none;align=center;verticalAlign=middle;whiteSpace=wrap;rounded=0;shadow=1;sketch=1;fontSize=17;fontStyle=3" vertex="1" parent="1">
          <mxGeometry x="470" y="-20" width="60" height="30" as="geometry" />
        </mxCell>
        <mxCell id="fohkbhz7AOHdn0SM_CYz-17" value="L1 Cache" style="rounded=1;whiteSpace=wrap;html=1;shadow=1;sketch=1;strokeWidth=2;fillColor=none;fontSize=17;fontStyle=3" vertex="1" parent="1">
          <mxGeometry x="420" y="80" width="80" height="60" as="geometry" />
        </mxCell>
        <mxCell id="fohkbhz7AOHdn0SM_CYz-18" value="&lt;span style=&quot;font-size: 17px;&quot;&gt;L1 Cache&lt;/span&gt;" style="rounded=1;whiteSpace=wrap;html=1;shadow=1;sketch=1;strokeWidth=2;fillColor=none;fontSize=17;fontStyle=3" vertex="1" parent="1">
          <mxGeometry x="500" y="80" width="80" height="60" as="geometry" />
        </mxCell>
        <mxCell id="fohkbhz7AOHdn0SM_CYz-19" value="L2 Cache" style="rounded=1;whiteSpace=wrap;html=1;shadow=1;sketch=1;strokeWidth=2;fillColor=none;fontSize=17;fontStyle=3" vertex="1" parent="1">
          <mxGeometry x="420" y="150" width="160" height="50" as="geometry" />
        </mxCell>
        <mxCell id="fohkbhz7AOHdn0SM_CYz-20" value="L3 Cache" style="rounded=1;whiteSpace=wrap;html=1;shadow=1;dashed=1;sketch=1;strokeWidth=2;fillColor=#d5e8d4;fontSize=17;fontStyle=3;strokeColor=#82b366;" vertex="1" parent="1">
          <mxGeometry y="280" width="600" height="60" as="geometry" />
        </mxCell>
        <mxCell id="fohkbhz7AOHdn0SM_CYz-21" value="缓存一致性协议" style="rounded=1;whiteSpace=wrap;html=1;shadow=1;dashed=1;sketch=1;strokeWidth=2;fillColor=#e1d5e7;fontSize=17;fontStyle=3;strokeColor=#9673a6;" vertex="1" parent="1">
          <mxGeometry x="-40" y="400" width="680" height="90" as="geometry" />
        </mxCell>
        <mxCell id="fohkbhz7AOHdn0SM_CYz-22" value="主内存" style="rounded=1;whiteSpace=wrap;html=1;shadow=1;dashed=1;sketch=1;strokeWidth=2;fillColor=#dae8fc;fontSize=17;fontStyle=3;strokeColor=#6c8ebf;" vertex="1" parent="1">
          <mxGeometry x="40" y="550" width="520" height="120" as="geometry" />
        </mxCell>
        <mxCell id="fohkbhz7AOHdn0SM_CYz-23" value="" style="endArrow=classic;startArrow=classic;html=1;rounded=0;fontSize=17;entryX=0.5;entryY=1;entryDx=0;entryDy=0;strokeWidth=2;" edge="1" parent="1" target="fohkbhz7AOHdn0SM_CYz-7">
          <mxGeometry width="50" height="50" relative="1" as="geometry">
            <mxPoint x="100" y="280" as="sourcePoint" />
            <mxPoint x="120" y="240" as="targetPoint" />
          </mxGeometry>
        </mxCell>
        <mxCell id="fohkbhz7AOHdn0SM_CYz-24" value="" style="endArrow=classic;startArrow=classic;html=1;rounded=1;fontSize=17;entryX=0.5;entryY=1;entryDx=0;entryDy=0;exitX=0.833;exitY=0.033;exitDx=0;exitDy=0;exitPerimeter=0;strokeWidth=2;targetPerimeterSpacing=0;endSize=6;" edge="1" parent="1" source="fohkbhz7AOHdn0SM_CYz-20" target="fohkbhz7AOHdn0SM_CYz-14">
          <mxGeometry width="50" height="50" relative="1" as="geometry">
            <mxPoint x="470" y="290" as="sourcePoint" />
            <mxPoint x="520" y="240" as="targetPoint" />
          </mxGeometry>
        </mxCell>
        <mxCell id="fohkbhz7AOHdn0SM_CYz-25" value="" style="endArrow=classic;startArrow=classic;html=1;rounded=0;fontSize=17;entryX=0.5;entryY=1;entryDx=0;entryDy=0;strokeWidth=2;exitX=0.5;exitY=0;exitDx=0;exitDy=0;" edge="1" parent="1" source="fohkbhz7AOHdn0SM_CYz-21" target="fohkbhz7AOHdn0SM_CYz-20">
          <mxGeometry width="50" height="50" relative="1" as="geometry">
            <mxPoint x="110" y="290" as="sourcePoint" />
            <mxPoint x="110" y="250" as="targetPoint" />
          </mxGeometry>
        </mxCell>
        <mxCell id="fohkbhz7AOHdn0SM_CYz-27" value="" style="endArrow=classic;startArrow=classic;html=1;rounded=1;fontSize=17;endSize=6;targetPerimeterSpacing=0;strokeWidth=2;entryX=0.5;entryY=1;entryDx=0;entryDy=0;exitX=0.5;exitY=0;exitDx=0;exitDy=0;" edge="1" parent="1" source="fohkbhz7AOHdn0SM_CYz-22" target="fohkbhz7AOHdn0SM_CYz-21">
          <mxGeometry width="50" height="50" relative="1" as="geometry">
            <mxPoint x="280" y="550" as="sourcePoint" />
            <mxPoint x="330" y="500" as="targetPoint" />
          </mxGeometry>
        </mxCell>
        <mxCell id="fohkbhz7AOHdn0SM_CYz-28" value="" style="endArrow=classic;startArrow=classic;html=1;rounded=0;fontSize=17;entryX=0.5;entryY=1;entryDx=0;entryDy=0;strokeWidth=2;exitX=0.5;exitY=0;exitDx=0;exitDy=0;" edge="1" parent="1">
          <mxGeometry width="50" height="50" relative="1" as="geometry">
            <mxPoint x="499" y="400" as="sourcePoint" />
            <mxPoint x="499" y="340" as="targetPoint" />
          </mxGeometry>
        </mxCell>
        <mxCell id="fohkbhz7AOHdn0SM_CYz-29" value="" style="endArrow=classic;startArrow=classic;html=1;rounded=0;fontSize=17;entryX=0.5;entryY=1;entryDx=0;entryDy=0;strokeWidth=2;exitX=0.5;exitY=0;exitDx=0;exitDy=0;" edge="1" parent="1">
          <mxGeometry width="50" height="50" relative="1" as="geometry">
            <mxPoint x="99" y="400" as="sourcePoint" />
            <mxPoint x="99" y="340" as="targetPoint" />
          </mxGeometry>
        </mxCell>
        <mxCell id="fohkbhz7AOHdn0SM_CYz-30" value="总线嗅探机制" style="text;html=1;strokeColor=none;fillColor=none;align=center;verticalAlign=middle;whiteSpace=wrap;rounded=0;shadow=1;dashed=1;sketch=1;fontSize=17;fontStyle=3" vertex="1" parent="1">
          <mxGeometry x="150" y="360" width="110" height="30" as="geometry" />
        </mxCell>
        <mxCell id="fohkbhz7AOHdn0SM_CYz-31" value="总线嗅探机制" style="text;html=1;strokeColor=none;fillColor=none;align=center;verticalAlign=middle;whiteSpace=wrap;rounded=0;shadow=1;dashed=1;sketch=1;fontSize=17;fontStyle=3" vertex="1" parent="1">
          <mxGeometry x="340" y="360" width="110" height="30" as="geometry" />
        </mxCell>
        <mxCell id="fohkbhz7AOHdn0SM_CYz-33" value="data" style="rounded=0;whiteSpace=wrap;html=1;shadow=1;dashed=1;sketch=1;fontSize=17;strokeWidth=2;fillColor=none;fontStyle=3" vertex="1" parent="1">
          <mxGeometry x="255" y="630" width="90" height="20" as="geometry" />
        </mxCell>
      </root>
    </mxGraphModel>
  </diagram>
</mxfile>
